<mxfile host="Electron" modified="2023-11-10T08:14:52.767Z" agent="Mozilla/5.0 (Windows NT 10.0; Win64; x64) AppleWebKit/537.36 (KHTML, like Gecko) draw.io/22.0.3 Chrome/114.0.5735.289 Electron/25.8.4 Safari/537.36" etag="nx3CpGDn5R9wUHiR6mZC" version="22.0.3" type="device" pages="6">
  <diagram name="Page-1" id="53dwqwtwY7mNFgvL0GNb">
    <mxGraphModel dx="1036" dy="614" grid="1" gridSize="10" guides="1" tooltips="1" connect="1" arrows="1" fold="1" page="1" pageScale="1" pageWidth="850" pageHeight="1100" math="0" shadow="0">
      <root>
        <mxCell id="0" />
        <mxCell id="1" parent="0" />
        <mxCell id="IpBOEJDZXu6TpDP5WT_N-3" style="edgeStyle=orthogonalEdgeStyle;rounded=0;orthogonalLoop=1;jettySize=auto;html=1;exitX=0.5;exitY=1;exitDx=0;exitDy=0;" edge="1" parent="1" source="IpBOEJDZXu6TpDP5WT_N-1" target="IpBOEJDZXu6TpDP5WT_N-2">
          <mxGeometry relative="1" as="geometry" />
        </mxCell>
        <mxCell id="IpBOEJDZXu6TpDP5WT_N-1" value="start" style="ellipse;whiteSpace=wrap;html=1;" vertex="1" parent="1">
          <mxGeometry x="280" y="90" width="120" height="80" as="geometry" />
        </mxCell>
        <mxCell id="IpBOEJDZXu6TpDP5WT_N-5" value="" style="edgeStyle=orthogonalEdgeStyle;rounded=0;orthogonalLoop=1;jettySize=auto;html=1;" edge="1" parent="1" source="IpBOEJDZXu6TpDP5WT_N-2" target="IpBOEJDZXu6TpDP5WT_N-4">
          <mxGeometry relative="1" as="geometry" />
        </mxCell>
        <mxCell id="IpBOEJDZXu6TpDP5WT_N-2" value="number" style="shape=parallelogram;perimeter=parallelogramPerimeter;whiteSpace=wrap;html=1;fixedSize=1;" vertex="1" parent="1">
          <mxGeometry x="280" y="200" width="120" height="60" as="geometry" />
        </mxCell>
        <mxCell id="IpBOEJDZXu6TpDP5WT_N-7" value="" style="edgeStyle=orthogonalEdgeStyle;rounded=0;orthogonalLoop=1;jettySize=auto;html=1;" edge="1" parent="1" source="IpBOEJDZXu6TpDP5WT_N-4" target="IpBOEJDZXu6TpDP5WT_N-6">
          <mxGeometry relative="1" as="geometry" />
        </mxCell>
        <mxCell id="IpBOEJDZXu6TpDP5WT_N-8" value="true" style="edgeLabel;html=1;align=center;verticalAlign=middle;resizable=0;points=[];" vertex="1" connectable="0" parent="IpBOEJDZXu6TpDP5WT_N-7">
          <mxGeometry x="-0.31" y="-3" relative="1" as="geometry">
            <mxPoint as="offset" />
          </mxGeometry>
        </mxCell>
        <mxCell id="IpBOEJDZXu6TpDP5WT_N-12" value="" style="edgeStyle=orthogonalEdgeStyle;rounded=0;orthogonalLoop=1;jettySize=auto;html=1;" edge="1" parent="1" source="IpBOEJDZXu6TpDP5WT_N-4" target="IpBOEJDZXu6TpDP5WT_N-13">
          <mxGeometry relative="1" as="geometry">
            <mxPoint x="530" y="340" as="targetPoint" />
          </mxGeometry>
        </mxCell>
        <mxCell id="IpBOEJDZXu6TpDP5WT_N-4" value="number%3==0&lt;br&gt;&amp;amp;&lt;br&gt;number%5==0" style="rhombus;whiteSpace=wrap;html=1;" vertex="1" parent="1">
          <mxGeometry x="265" y="300" width="150" height="80" as="geometry" />
        </mxCell>
        <mxCell id="IpBOEJDZXu6TpDP5WT_N-10" style="edgeStyle=orthogonalEdgeStyle;rounded=0;orthogonalLoop=1;jettySize=auto;html=1;exitX=0.5;exitY=1;exitDx=0;exitDy=0;" edge="1" parent="1" source="IpBOEJDZXu6TpDP5WT_N-6" target="IpBOEJDZXu6TpDP5WT_N-9">
          <mxGeometry relative="1" as="geometry" />
        </mxCell>
        <mxCell id="IpBOEJDZXu6TpDP5WT_N-6" value="number chia het cho 3 va 5" style="whiteSpace=wrap;html=1;" vertex="1" parent="1">
          <mxGeometry x="280" y="420" width="120" height="60" as="geometry" />
        </mxCell>
        <mxCell id="IpBOEJDZXu6TpDP5WT_N-16" value="" style="edgeStyle=orthogonalEdgeStyle;rounded=0;orthogonalLoop=1;jettySize=auto;html=1;" edge="1" parent="1" source="IpBOEJDZXu6TpDP5WT_N-9" target="IpBOEJDZXu6TpDP5WT_N-15">
          <mxGeometry relative="1" as="geometry" />
        </mxCell>
        <mxCell id="IpBOEJDZXu6TpDP5WT_N-9" value="number chia het&lt;br&gt;or khong chia het" style="shape=parallelogram;perimeter=parallelogramPerimeter;whiteSpace=wrap;html=1;fixedSize=1;" vertex="1" parent="1">
          <mxGeometry x="280" y="510" width="120" height="60" as="geometry" />
        </mxCell>
        <mxCell id="IpBOEJDZXu6TpDP5WT_N-14" style="edgeStyle=orthogonalEdgeStyle;rounded=0;orthogonalLoop=1;jettySize=auto;html=1;exitX=0.5;exitY=1;exitDx=0;exitDy=0;" edge="1" parent="1" source="IpBOEJDZXu6TpDP5WT_N-13" target="IpBOEJDZXu6TpDP5WT_N-9">
          <mxGeometry relative="1" as="geometry">
            <Array as="points">
              <mxPoint x="510" y="540" />
            </Array>
          </mxGeometry>
        </mxCell>
        <mxCell id="IpBOEJDZXu6TpDP5WT_N-13" value="number khong chia het" style="rounded=0;whiteSpace=wrap;html=1;" vertex="1" parent="1">
          <mxGeometry x="450" y="420" width="120" height="60" as="geometry" />
        </mxCell>
        <mxCell id="IpBOEJDZXu6TpDP5WT_N-15" value="end" style="ellipse;whiteSpace=wrap;html=1;" vertex="1" parent="1">
          <mxGeometry x="280" y="620" width="120" height="49" as="geometry" />
        </mxCell>
      </root>
    </mxGraphModel>
  </diagram>
  <diagram id="sYSwzzD8oXSaF858TJPT" name="Page-2">
    <mxGraphModel dx="1036" dy="614" grid="1" gridSize="10" guides="1" tooltips="1" connect="1" arrows="1" fold="1" page="1" pageScale="1" pageWidth="850" pageHeight="1100" math="0" shadow="0">
      <root>
        <mxCell id="0" />
        <mxCell id="1" parent="0" />
        <mxCell id="Ba3nrdntZzKrSlO9kXHL-1" style="edgeStyle=orthogonalEdgeStyle;rounded=0;orthogonalLoop=1;jettySize=auto;html=1;exitX=0.5;exitY=1;exitDx=0;exitDy=0;" edge="1" parent="1" source="Ba3nrdntZzKrSlO9kXHL-2" target="Ba3nrdntZzKrSlO9kXHL-4">
          <mxGeometry relative="1" as="geometry" />
        </mxCell>
        <mxCell id="Ba3nrdntZzKrSlO9kXHL-2" value="start" style="ellipse;whiteSpace=wrap;html=1;" vertex="1" parent="1">
          <mxGeometry x="320" y="60" width="120" height="80" as="geometry" />
        </mxCell>
        <mxCell id="Ba3nrdntZzKrSlO9kXHL-3" value="" style="edgeStyle=orthogonalEdgeStyle;rounded=0;orthogonalLoop=1;jettySize=auto;html=1;" edge="1" parent="1" source="Ba3nrdntZzKrSlO9kXHL-4" target="Ba3nrdntZzKrSlO9kXHL-6">
          <mxGeometry relative="1" as="geometry" />
        </mxCell>
        <mxCell id="Ba3nrdntZzKrSlO9kXHL-4" value="a,b,c" style="shape=parallelogram;perimeter=parallelogramPerimeter;whiteSpace=wrap;html=1;fixedSize=1;" vertex="1" parent="1">
          <mxGeometry x="320" y="180" width="120" height="60" as="geometry" />
        </mxCell>
        <mxCell id="Ba3nrdntZzKrSlO9kXHL-5" value="" style="edgeStyle=orthogonalEdgeStyle;rounded=0;orthogonalLoop=1;jettySize=auto;html=1;" edge="1" parent="1" source="Ba3nrdntZzKrSlO9kXHL-6" target="Ba3nrdntZzKrSlO9kXHL-9">
          <mxGeometry relative="1" as="geometry">
            <mxPoint x="380" y="380" as="targetPoint" />
          </mxGeometry>
        </mxCell>
        <mxCell id="Ba3nrdntZzKrSlO9kXHL-6" value="nhap a,b,c" style="whiteSpace=wrap;html=1;" vertex="1" parent="1">
          <mxGeometry x="320" y="280" width="120" height="60" as="geometry" />
        </mxCell>
        <mxCell id="Ba3nrdntZzKrSlO9kXHL-7" value="" style="edgeStyle=orthogonalEdgeStyle;rounded=0;orthogonalLoop=1;jettySize=auto;html=1;" edge="1" parent="1" source="Ba3nrdntZzKrSlO9kXHL-9" target="Ba3nrdntZzKrSlO9kXHL-10">
          <mxGeometry relative="1" as="geometry" />
        </mxCell>
        <mxCell id="5sZxETY1QtAlGrVssrR3-1" value="true" style="edgeLabel;html=1;align=center;verticalAlign=middle;resizable=0;points=[];" vertex="1" connectable="0" parent="Ba3nrdntZzKrSlO9kXHL-7">
          <mxGeometry x="-0.44" y="5" relative="1" as="geometry">
            <mxPoint as="offset" />
          </mxGeometry>
        </mxCell>
        <mxCell id="Ba3nrdntZzKrSlO9kXHL-8" value="" style="edgeStyle=orthogonalEdgeStyle;rounded=0;orthogonalLoop=1;jettySize=auto;html=1;" edge="1" parent="1" source="Ba3nrdntZzKrSlO9kXHL-9" target="Ba3nrdntZzKrSlO9kXHL-11">
          <mxGeometry relative="1" as="geometry" />
        </mxCell>
        <mxCell id="5sZxETY1QtAlGrVssrR3-9" value="false" style="edgeLabel;html=1;align=center;verticalAlign=middle;resizable=0;points=[];" vertex="1" connectable="0" parent="Ba3nrdntZzKrSlO9kXHL-8">
          <mxGeometry x="-0.656" relative="1" as="geometry">
            <mxPoint as="offset" />
          </mxGeometry>
        </mxCell>
        <mxCell id="Ba3nrdntZzKrSlO9kXHL-9" value="a=b=c" style="rhombus;whiteSpace=wrap;html=1;" vertex="1" parent="1">
          <mxGeometry x="340" y="380" width="80" height="60" as="geometry" />
        </mxCell>
        <mxCell id="Ba3nrdntZzKrSlO9kXHL-27" style="edgeStyle=orthogonalEdgeStyle;rounded=0;orthogonalLoop=1;jettySize=auto;html=1;exitX=0.5;exitY=1;exitDx=0;exitDy=0;" edge="1" parent="1" source="Ba3nrdntZzKrSlO9kXHL-10" target="Ba3nrdntZzKrSlO9kXHL-26">
          <mxGeometry relative="1" as="geometry" />
        </mxCell>
        <mxCell id="Ba3nrdntZzKrSlO9kXHL-10" value="tam giac deu" style="whiteSpace=wrap;html=1;" vertex="1" parent="1">
          <mxGeometry x="320" y="500" width="120" height="60" as="geometry" />
        </mxCell>
        <mxCell id="Ba3nrdntZzKrSlO9kXHL-13" value="" style="edgeStyle=orthogonalEdgeStyle;rounded=0;orthogonalLoop=1;jettySize=auto;html=1;" edge="1" parent="1" source="Ba3nrdntZzKrSlO9kXHL-11" target="Ba3nrdntZzKrSlO9kXHL-12">
          <mxGeometry relative="1" as="geometry" />
        </mxCell>
        <mxCell id="5sZxETY1QtAlGrVssrR3-2" value="true" style="edgeLabel;html=1;align=center;verticalAlign=middle;resizable=0;points=[];" vertex="1" connectable="0" parent="Ba3nrdntZzKrSlO9kXHL-13">
          <mxGeometry x="-0.16" y="5" relative="1" as="geometry">
            <mxPoint as="offset" />
          </mxGeometry>
        </mxCell>
        <mxCell id="Ba3nrdntZzKrSlO9kXHL-15" value="" style="edgeStyle=orthogonalEdgeStyle;rounded=0;orthogonalLoop=1;jettySize=auto;html=1;" edge="1" parent="1" source="Ba3nrdntZzKrSlO9kXHL-11" target="Ba3nrdntZzKrSlO9kXHL-14">
          <mxGeometry relative="1" as="geometry" />
        </mxCell>
        <mxCell id="5sZxETY1QtAlGrVssrR3-10" value="false" style="edgeLabel;html=1;align=center;verticalAlign=middle;resizable=0;points=[];" vertex="1" connectable="0" parent="Ba3nrdntZzKrSlO9kXHL-15">
          <mxGeometry x="-0.12" y="2" relative="1" as="geometry">
            <mxPoint as="offset" />
          </mxGeometry>
        </mxCell>
        <mxCell id="Ba3nrdntZzKrSlO9kXHL-11" value="(a*a+b*b=c*c va a=b ) &lt;br&gt;or (a*a+c*c=b*b va a=c) &lt;br&gt;or (c*c+b*b=a*a va c=b)" style="rhombus;whiteSpace=wrap;html=1;" vertex="1" parent="1">
          <mxGeometry x="450" y="360" width="180" height="100" as="geometry" />
        </mxCell>
        <mxCell id="Ba3nrdntZzKrSlO9kXHL-28" style="edgeStyle=orthogonalEdgeStyle;rounded=0;orthogonalLoop=1;jettySize=auto;html=1;exitX=0.5;exitY=1;exitDx=0;exitDy=0;" edge="1" parent="1" source="Ba3nrdntZzKrSlO9kXHL-12" target="Ba3nrdntZzKrSlO9kXHL-26">
          <mxGeometry relative="1" as="geometry" />
        </mxCell>
        <mxCell id="Ba3nrdntZzKrSlO9kXHL-12" value="tam iac vuong can" style="whiteSpace=wrap;html=1;" vertex="1" parent="1">
          <mxGeometry x="480" y="500" width="120" height="60" as="geometry" />
        </mxCell>
        <mxCell id="Ba3nrdntZzKrSlO9kXHL-17" value="" style="edgeStyle=orthogonalEdgeStyle;rounded=0;orthogonalLoop=1;jettySize=auto;html=1;" edge="1" parent="1" source="Ba3nrdntZzKrSlO9kXHL-14" target="Ba3nrdntZzKrSlO9kXHL-16">
          <mxGeometry relative="1" as="geometry" />
        </mxCell>
        <mxCell id="5sZxETY1QtAlGrVssrR3-3" value="true" style="edgeLabel;html=1;align=center;verticalAlign=middle;resizable=0;points=[];" vertex="1" connectable="0" parent="Ba3nrdntZzKrSlO9kXHL-17">
          <mxGeometry x="-0.16" y="2" relative="1" as="geometry">
            <mxPoint as="offset" />
          </mxGeometry>
        </mxCell>
        <mxCell id="Ba3nrdntZzKrSlO9kXHL-19" value="" style="edgeStyle=orthogonalEdgeStyle;rounded=0;orthogonalLoop=1;jettySize=auto;html=1;" edge="1" parent="1" source="Ba3nrdntZzKrSlO9kXHL-14" target="Ba3nrdntZzKrSlO9kXHL-18">
          <mxGeometry relative="1" as="geometry" />
        </mxCell>
        <mxCell id="5sZxETY1QtAlGrVssrR3-11" value="false" style="edgeLabel;html=1;align=center;verticalAlign=middle;resizable=0;points=[];" vertex="1" connectable="0" parent="Ba3nrdntZzKrSlO9kXHL-19">
          <mxGeometry x="-0.616" relative="1" as="geometry">
            <mxPoint as="offset" />
          </mxGeometry>
        </mxCell>
        <mxCell id="Ba3nrdntZzKrSlO9kXHL-14" value="a*a+b*b=c*c&amp;nbsp;&lt;br style=&quot;border-color: var(--border-color);&quot;&gt;or a*a+c*c=b*b&amp;nbsp;&lt;br style=&quot;border-color: var(--border-color);&quot;&gt;or c*c+b*b=a*a&amp;nbsp;" style="rhombus;whiteSpace=wrap;html=1;" vertex="1" parent="1">
          <mxGeometry x="670" y="360" width="140" height="100" as="geometry" />
        </mxCell>
        <mxCell id="Ba3nrdntZzKrSlO9kXHL-29" style="edgeStyle=orthogonalEdgeStyle;rounded=0;orthogonalLoop=1;jettySize=auto;html=1;exitX=0.5;exitY=1;exitDx=0;exitDy=0;" edge="1" parent="1" source="Ba3nrdntZzKrSlO9kXHL-16" target="Ba3nrdntZzKrSlO9kXHL-26">
          <mxGeometry relative="1" as="geometry" />
        </mxCell>
        <mxCell id="Ba3nrdntZzKrSlO9kXHL-16" value="tam giac vuong" style="whiteSpace=wrap;html=1;" vertex="1" parent="1">
          <mxGeometry x="680" y="500" width="120" height="60" as="geometry" />
        </mxCell>
        <mxCell id="Ba3nrdntZzKrSlO9kXHL-21" value="" style="edgeStyle=orthogonalEdgeStyle;rounded=0;orthogonalLoop=1;jettySize=auto;html=1;" edge="1" parent="1" source="Ba3nrdntZzKrSlO9kXHL-18" target="Ba3nrdntZzKrSlO9kXHL-20">
          <mxGeometry relative="1" as="geometry" />
        </mxCell>
        <mxCell id="5sZxETY1QtAlGrVssrR3-4" value="true" style="edgeLabel;html=1;align=center;verticalAlign=middle;resizable=0;points=[];" vertex="1" connectable="0" parent="Ba3nrdntZzKrSlO9kXHL-21">
          <mxGeometry x="-0.0618" relative="1" as="geometry">
            <mxPoint as="offset" />
          </mxGeometry>
        </mxCell>
        <mxCell id="Ba3nrdntZzKrSlO9kXHL-23" value="" style="edgeStyle=orthogonalEdgeStyle;rounded=0;orthogonalLoop=1;jettySize=auto;html=1;" edge="1" parent="1" source="Ba3nrdntZzKrSlO9kXHL-18" target="Ba3nrdntZzKrSlO9kXHL-22">
          <mxGeometry relative="1" as="geometry" />
        </mxCell>
        <mxCell id="5sZxETY1QtAlGrVssrR3-13" value="false" style="edgeLabel;html=1;align=center;verticalAlign=middle;resizable=0;points=[];" vertex="1" connectable="0" parent="Ba3nrdntZzKrSlO9kXHL-23">
          <mxGeometry x="-0.256" y="-1" relative="1" as="geometry">
            <mxPoint as="offset" />
          </mxGeometry>
        </mxCell>
        <mxCell id="Ba3nrdntZzKrSlO9kXHL-18" value="a=b or b=c or a=c" style="rhombus;whiteSpace=wrap;html=1;" vertex="1" parent="1">
          <mxGeometry x="840" y="375" width="120" height="70" as="geometry" />
        </mxCell>
        <mxCell id="Ba3nrdntZzKrSlO9kXHL-30" style="edgeStyle=orthogonalEdgeStyle;rounded=0;orthogonalLoop=1;jettySize=auto;html=1;exitX=0.5;exitY=1;exitDx=0;exitDy=0;" edge="1" parent="1" source="Ba3nrdntZzKrSlO9kXHL-20" target="Ba3nrdntZzKrSlO9kXHL-26">
          <mxGeometry relative="1" as="geometry" />
        </mxCell>
        <mxCell id="Ba3nrdntZzKrSlO9kXHL-20" value="tam giac can" style="whiteSpace=wrap;html=1;" vertex="1" parent="1">
          <mxGeometry x="840" y="500" width="120" height="60" as="geometry" />
        </mxCell>
        <mxCell id="Ba3nrdntZzKrSlO9kXHL-25" value="" style="edgeStyle=orthogonalEdgeStyle;rounded=0;orthogonalLoop=1;jettySize=auto;html=1;" edge="1" parent="1" source="Ba3nrdntZzKrSlO9kXHL-22" target="Ba3nrdntZzKrSlO9kXHL-24">
          <mxGeometry relative="1" as="geometry" />
        </mxCell>
        <mxCell id="5sZxETY1QtAlGrVssrR3-5" value="true" style="edgeLabel;html=1;align=center;verticalAlign=middle;resizable=0;points=[];" vertex="1" connectable="0" parent="Ba3nrdntZzKrSlO9kXHL-25">
          <mxGeometry x="0.0067" y="-2" relative="1" as="geometry">
            <mxPoint as="offset" />
          </mxGeometry>
        </mxCell>
        <mxCell id="5sZxETY1QtAlGrVssrR3-6" style="edgeStyle=orthogonalEdgeStyle;rounded=0;orthogonalLoop=1;jettySize=auto;html=1;exitX=1;exitY=0.5;exitDx=0;exitDy=0;" edge="1" parent="1" source="Ba3nrdntZzKrSlO9kXHL-22" target="5sZxETY1QtAlGrVssrR3-8">
          <mxGeometry relative="1" as="geometry">
            <mxPoint x="1090" y="660" as="targetPoint" />
            <Array as="points">
              <mxPoint x="1130" y="410" />
              <mxPoint x="1130" y="660" />
            </Array>
          </mxGeometry>
        </mxCell>
        <mxCell id="5sZxETY1QtAlGrVssrR3-14" value="false" style="edgeLabel;html=1;align=center;verticalAlign=middle;resizable=0;points=[];" vertex="1" connectable="0" parent="5sZxETY1QtAlGrVssrR3-6">
          <mxGeometry x="-0.4692" y="1" relative="1" as="geometry">
            <mxPoint as="offset" />
          </mxGeometry>
        </mxCell>
        <mxCell id="Ba3nrdntZzKrSlO9kXHL-22" value="a+b&amp;gt;c&lt;br&gt;or a+c&amp;gt;b&lt;br&gt;or b+c&amp;gt;a" style="rhombus;whiteSpace=wrap;html=1;" vertex="1" parent="1">
          <mxGeometry x="1010" y="380" width="100" height="60" as="geometry" />
        </mxCell>
        <mxCell id="Ba3nrdntZzKrSlO9kXHL-31" style="edgeStyle=orthogonalEdgeStyle;rounded=0;orthogonalLoop=1;jettySize=auto;html=1;exitX=0.5;exitY=1;exitDx=0;exitDy=0;" edge="1" parent="1" source="Ba3nrdntZzKrSlO9kXHL-24" target="Ba3nrdntZzKrSlO9kXHL-26">
          <mxGeometry relative="1" as="geometry" />
        </mxCell>
        <mxCell id="Ba3nrdntZzKrSlO9kXHL-24" value="tam giac thuong" style="whiteSpace=wrap;html=1;" vertex="1" parent="1">
          <mxGeometry x="1000" y="500" width="120" height="60" as="geometry" />
        </mxCell>
        <mxCell id="Ba3nrdntZzKrSlO9kXHL-33" value="" style="edgeStyle=orthogonalEdgeStyle;rounded=0;orthogonalLoop=1;jettySize=auto;html=1;" edge="1" parent="1" source="Ba3nrdntZzKrSlO9kXHL-26" target="Ba3nrdntZzKrSlO9kXHL-32">
          <mxGeometry relative="1" as="geometry" />
        </mxCell>
        <mxCell id="Ba3nrdntZzKrSlO9kXHL-26" value="tam giac ..." style="shape=parallelogram;perimeter=parallelogramPerimeter;whiteSpace=wrap;html=1;fixedSize=1;" vertex="1" parent="1">
          <mxGeometry x="680" y="630" width="120" height="60" as="geometry" />
        </mxCell>
        <mxCell id="Ba3nrdntZzKrSlO9kXHL-32" value="end" style="ellipse;whiteSpace=wrap;html=1;" vertex="1" parent="1">
          <mxGeometry x="690" y="750" width="100" height="50" as="geometry" />
        </mxCell>
        <mxCell id="5sZxETY1QtAlGrVssrR3-15" style="edgeStyle=orthogonalEdgeStyle;rounded=0;orthogonalLoop=1;jettySize=auto;html=1;exitX=0;exitY=0.5;exitDx=0;exitDy=0;" edge="1" parent="1" source="5sZxETY1QtAlGrVssrR3-8" target="Ba3nrdntZzKrSlO9kXHL-32">
          <mxGeometry relative="1" as="geometry">
            <Array as="points">
              <mxPoint x="870" y="680" />
              <mxPoint x="910" y="680" />
              <mxPoint x="910" y="775" />
            </Array>
          </mxGeometry>
        </mxCell>
        <mxCell id="5sZxETY1QtAlGrVssrR3-8" value="ko phai tam giac" style="shape=parallelogram;perimeter=parallelogramPerimeter;whiteSpace=wrap;html=1;fixedSize=1;" vertex="1" parent="1">
          <mxGeometry x="860" y="630" width="120" height="60" as="geometry" />
        </mxCell>
      </root>
    </mxGraphModel>
  </diagram>
  <diagram id="L7yYvyz4tkUn9V8LTf32" name="Page-3">
    <mxGraphModel dx="1036" dy="614" grid="1" gridSize="10" guides="1" tooltips="1" connect="1" arrows="1" fold="1" page="1" pageScale="1" pageWidth="850" pageHeight="1100" math="0" shadow="0">
      <root>
        <mxCell id="0" />
        <mxCell id="1" parent="0" />
        <mxCell id="eqJoa6EhZJMx3TBZtdDF-3" value="" style="edgeStyle=orthogonalEdgeStyle;rounded=0;orthogonalLoop=1;jettySize=auto;html=1;" edge="1" parent="1" source="eqJoa6EhZJMx3TBZtdDF-1" target="eqJoa6EhZJMx3TBZtdDF-2">
          <mxGeometry relative="1" as="geometry" />
        </mxCell>
        <mxCell id="eqJoa6EhZJMx3TBZtdDF-1" value="start" style="ellipse;whiteSpace=wrap;html=1;" vertex="1" parent="1">
          <mxGeometry x="180" y="80" width="120" height="80" as="geometry" />
        </mxCell>
        <mxCell id="eqJoa6EhZJMx3TBZtdDF-5" value="" style="edgeStyle=orthogonalEdgeStyle;rounded=0;orthogonalLoop=1;jettySize=auto;html=1;" edge="1" parent="1" source="eqJoa6EhZJMx3TBZtdDF-2" target="eqJoa6EhZJMx3TBZtdDF-4">
          <mxGeometry relative="1" as="geometry" />
        </mxCell>
        <mxCell id="eqJoa6EhZJMx3TBZtdDF-2" value="&amp;nbsp;dauThang&lt;br&gt;cuoiThang" style="shape=parallelogram;perimeter=parallelogramPerimeter;whiteSpace=wrap;html=1;fixedSize=1;" vertex="1" parent="1">
          <mxGeometry x="180" y="210" width="120" height="60" as="geometry" />
        </mxCell>
        <mxCell id="eqJoa6EhZJMx3TBZtdDF-7" value="" style="edgeStyle=orthogonalEdgeStyle;rounded=0;orthogonalLoop=1;jettySize=auto;html=1;" edge="1" parent="1" source="eqJoa6EhZJMx3TBZtdDF-4" target="eqJoa6EhZJMx3TBZtdDF-6">
          <mxGeometry relative="1" as="geometry" />
        </mxCell>
        <mxCell id="eqJoa6EhZJMx3TBZtdDF-4" value="nhap&lt;br&gt;dauThang&lt;br style=&quot;border-color: var(--border-color);&quot;&gt;cuoiThang" style="whiteSpace=wrap;html=1;" vertex="1" parent="1">
          <mxGeometry x="180" y="320" width="120" height="60" as="geometry" />
        </mxCell>
        <mxCell id="eqJoa6EhZJMx3TBZtdDF-9" value="" style="edgeStyle=orthogonalEdgeStyle;rounded=0;orthogonalLoop=1;jettySize=auto;html=1;" edge="1" parent="1" source="eqJoa6EhZJMx3TBZtdDF-6" target="eqJoa6EhZJMx3TBZtdDF-8">
          <mxGeometry relative="1" as="geometry" />
        </mxCell>
        <mxCell id="eqJoa6EhZJMx3TBZtdDF-6" value="soDien=cuoiThang-dauThang" style="whiteSpace=wrap;html=1;" vertex="1" parent="1">
          <mxGeometry x="180" y="410" width="120" height="60" as="geometry" />
        </mxCell>
        <mxCell id="eqJoa6EhZJMx3TBZtdDF-11" value="" style="edgeStyle=orthogonalEdgeStyle;rounded=0;orthogonalLoop=1;jettySize=auto;html=1;" edge="1" parent="1" source="eqJoa6EhZJMx3TBZtdDF-8" target="eqJoa6EhZJMx3TBZtdDF-10">
          <mxGeometry relative="1" as="geometry" />
        </mxCell>
        <mxCell id="eqJoa6EhZJMx3TBZtdDF-28" value="false" style="edgeLabel;html=1;align=center;verticalAlign=middle;resizable=0;points=[];" vertex="1" connectable="0" parent="eqJoa6EhZJMx3TBZtdDF-11">
          <mxGeometry x="0.0625" y="-4" relative="1" as="geometry">
            <mxPoint as="offset" />
          </mxGeometry>
        </mxCell>
        <mxCell id="eqJoa6EhZJMx3TBZtdDF-17" value="" style="edgeStyle=orthogonalEdgeStyle;rounded=0;orthogonalLoop=1;jettySize=auto;html=1;" edge="1" parent="1" source="eqJoa6EhZJMx3TBZtdDF-8" target="eqJoa6EhZJMx3TBZtdDF-16">
          <mxGeometry relative="1" as="geometry" />
        </mxCell>
        <mxCell id="eqJoa6EhZJMx3TBZtdDF-32" value="true" style="edgeLabel;html=1;align=center;verticalAlign=middle;resizable=0;points=[];" vertex="1" connectable="0" parent="eqJoa6EhZJMx3TBZtdDF-17">
          <mxGeometry x="0.54" y="-1" relative="1" as="geometry">
            <mxPoint as="offset" />
          </mxGeometry>
        </mxCell>
        <mxCell id="eqJoa6EhZJMx3TBZtdDF-8" value="soDien&amp;lt;50" style="rhombus;whiteSpace=wrap;html=1;" vertex="1" parent="1">
          <mxGeometry x="187.5" y="500" width="105" height="60" as="geometry" />
        </mxCell>
        <mxCell id="eqJoa6EhZJMx3TBZtdDF-13" value="" style="edgeStyle=orthogonalEdgeStyle;rounded=0;orthogonalLoop=1;jettySize=auto;html=1;" edge="1" parent="1" source="eqJoa6EhZJMx3TBZtdDF-10" target="eqJoa6EhZJMx3TBZtdDF-12">
          <mxGeometry relative="1" as="geometry" />
        </mxCell>
        <mxCell id="eqJoa6EhZJMx3TBZtdDF-29" value="false" style="edgeLabel;html=1;align=center;verticalAlign=middle;resizable=0;points=[];" vertex="1" connectable="0" parent="eqJoa6EhZJMx3TBZtdDF-13">
          <mxGeometry x="-0.2875" y="3" relative="1" as="geometry">
            <mxPoint as="offset" />
          </mxGeometry>
        </mxCell>
        <mxCell id="eqJoa6EhZJMx3TBZtdDF-19" value="" style="edgeStyle=orthogonalEdgeStyle;rounded=0;orthogonalLoop=1;jettySize=auto;html=1;" edge="1" parent="1" source="eqJoa6EhZJMx3TBZtdDF-10" target="eqJoa6EhZJMx3TBZtdDF-18">
          <mxGeometry relative="1" as="geometry" />
        </mxCell>
        <mxCell id="eqJoa6EhZJMx3TBZtdDF-33" value="true" style="edgeLabel;html=1;align=center;verticalAlign=middle;resizable=0;points=[];" vertex="1" connectable="0" parent="eqJoa6EhZJMx3TBZtdDF-19">
          <mxGeometry x="0.5733" y="1" relative="1" as="geometry">
            <mxPoint as="offset" />
          </mxGeometry>
        </mxCell>
        <mxCell id="eqJoa6EhZJMx3TBZtdDF-10" value="soDien&amp;lt;100" style="rhombus;whiteSpace=wrap;html=1;" vertex="1" parent="1">
          <mxGeometry x="372.5" y="500" width="105" height="60" as="geometry" />
        </mxCell>
        <mxCell id="eqJoa6EhZJMx3TBZtdDF-15" value="" style="edgeStyle=orthogonalEdgeStyle;rounded=0;orthogonalLoop=1;jettySize=auto;html=1;" edge="1" parent="1" source="eqJoa6EhZJMx3TBZtdDF-12" target="eqJoa6EhZJMx3TBZtdDF-14">
          <mxGeometry relative="1" as="geometry" />
        </mxCell>
        <mxCell id="eqJoa6EhZJMx3TBZtdDF-30" value="false" style="edgeLabel;html=1;align=center;verticalAlign=middle;resizable=0;points=[];" vertex="1" connectable="0" parent="eqJoa6EhZJMx3TBZtdDF-15">
          <mxGeometry x="-0.2625" y="4" relative="1" as="geometry">
            <mxPoint as="offset" />
          </mxGeometry>
        </mxCell>
        <mxCell id="eqJoa6EhZJMx3TBZtdDF-22" style="edgeStyle=orthogonalEdgeStyle;rounded=0;orthogonalLoop=1;jettySize=auto;html=1;exitX=0.5;exitY=1;exitDx=0;exitDy=0;" edge="1" parent="1" source="eqJoa6EhZJMx3TBZtdDF-12" target="eqJoa6EhZJMx3TBZtdDF-20">
          <mxGeometry relative="1" as="geometry" />
        </mxCell>
        <mxCell id="eqJoa6EhZJMx3TBZtdDF-34" value="true" style="edgeLabel;html=1;align=center;verticalAlign=middle;resizable=0;points=[];" vertex="1" connectable="0" parent="eqJoa6EhZJMx3TBZtdDF-22">
          <mxGeometry x="0.64" y="1" relative="1" as="geometry">
            <mxPoint as="offset" />
          </mxGeometry>
        </mxCell>
        <mxCell id="eqJoa6EhZJMx3TBZtdDF-12" value="soDien&amp;lt;150" style="rhombus;whiteSpace=wrap;html=1;" vertex="1" parent="1">
          <mxGeometry x="557.5" y="500" width="105" height="60" as="geometry" />
        </mxCell>
        <mxCell id="eqJoa6EhZJMx3TBZtdDF-23" style="edgeStyle=orthogonalEdgeStyle;rounded=0;orthogonalLoop=1;jettySize=auto;html=1;exitX=0.5;exitY=1;exitDx=0;exitDy=0;" edge="1" parent="1" source="eqJoa6EhZJMx3TBZtdDF-14" target="eqJoa6EhZJMx3TBZtdDF-21">
          <mxGeometry relative="1" as="geometry" />
        </mxCell>
        <mxCell id="eqJoa6EhZJMx3TBZtdDF-35" value="true" style="edgeLabel;html=1;align=center;verticalAlign=middle;resizable=0;points=[];" vertex="1" connectable="0" parent="eqJoa6EhZJMx3TBZtdDF-23">
          <mxGeometry x="0.6733" relative="1" as="geometry">
            <mxPoint as="offset" />
          </mxGeometry>
        </mxCell>
        <mxCell id="eqJoa6EhZJMx3TBZtdDF-25" value="" style="edgeStyle=orthogonalEdgeStyle;rounded=0;orthogonalLoop=1;jettySize=auto;html=1;" edge="1" parent="1" source="eqJoa6EhZJMx3TBZtdDF-14" target="eqJoa6EhZJMx3TBZtdDF-26">
          <mxGeometry relative="1" as="geometry">
            <mxPoint x="927.5" y="530" as="targetPoint" />
          </mxGeometry>
        </mxCell>
        <mxCell id="eqJoa6EhZJMx3TBZtdDF-31" value="false" style="edgeLabel;html=1;align=center;verticalAlign=middle;resizable=0;points=[];" vertex="1" connectable="0" parent="eqJoa6EhZJMx3TBZtdDF-25">
          <mxGeometry x="-0.2058" y="3" relative="1" as="geometry">
            <mxPoint x="1" as="offset" />
          </mxGeometry>
        </mxCell>
        <mxCell id="eqJoa6EhZJMx3TBZtdDF-14" value="soDien&amp;lt;200" style="rhombus;whiteSpace=wrap;html=1;" vertex="1" parent="1">
          <mxGeometry x="742.5" y="500" width="105" height="60" as="geometry" />
        </mxCell>
        <mxCell id="eqJoa6EhZJMx3TBZtdDF-37" style="edgeStyle=orthogonalEdgeStyle;rounded=0;orthogonalLoop=1;jettySize=auto;html=1;exitX=0.5;exitY=1;exitDx=0;exitDy=0;" edge="1" parent="1" source="eqJoa6EhZJMx3TBZtdDF-16" target="eqJoa6EhZJMx3TBZtdDF-36">
          <mxGeometry relative="1" as="geometry" />
        </mxCell>
        <mxCell id="eqJoa6EhZJMx3TBZtdDF-16" value="tienDien=soDien*10000" style="whiteSpace=wrap;html=1;" vertex="1" parent="1">
          <mxGeometry x="170" y="580" width="140" height="60" as="geometry" />
        </mxCell>
        <mxCell id="eqJoa6EhZJMx3TBZtdDF-38" style="edgeStyle=orthogonalEdgeStyle;rounded=0;orthogonalLoop=1;jettySize=auto;html=1;exitX=0.5;exitY=1;exitDx=0;exitDy=0;" edge="1" parent="1" source="eqJoa6EhZJMx3TBZtdDF-18" target="eqJoa6EhZJMx3TBZtdDF-36">
          <mxGeometry relative="1" as="geometry" />
        </mxCell>
        <mxCell id="eqJoa6EhZJMx3TBZtdDF-18" value="tienDien=soDien*15000" style="whiteSpace=wrap;html=1;" vertex="1" parent="1">
          <mxGeometry x="357.5" y="580" width="135" height="60" as="geometry" />
        </mxCell>
        <mxCell id="eqJoa6EhZJMx3TBZtdDF-39" style="edgeStyle=orthogonalEdgeStyle;rounded=0;orthogonalLoop=1;jettySize=auto;html=1;exitX=0.5;exitY=1;exitDx=0;exitDy=0;" edge="1" parent="1" source="eqJoa6EhZJMx3TBZtdDF-20" target="eqJoa6EhZJMx3TBZtdDF-36">
          <mxGeometry relative="1" as="geometry" />
        </mxCell>
        <mxCell id="eqJoa6EhZJMx3TBZtdDF-20" value="tienDien=soDien*20000" style="whiteSpace=wrap;html=1;" vertex="1" parent="1">
          <mxGeometry x="540" y="580" width="140" height="60" as="geometry" />
        </mxCell>
        <mxCell id="eqJoa6EhZJMx3TBZtdDF-40" style="edgeStyle=orthogonalEdgeStyle;rounded=0;orthogonalLoop=1;jettySize=auto;html=1;exitX=0.5;exitY=1;exitDx=0;exitDy=0;" edge="1" parent="1" source="eqJoa6EhZJMx3TBZtdDF-21" target="eqJoa6EhZJMx3TBZtdDF-36">
          <mxGeometry relative="1" as="geometry" />
        </mxCell>
        <mxCell id="eqJoa6EhZJMx3TBZtdDF-21" value="tienDien=soDien*25000" style="whiteSpace=wrap;html=1;" vertex="1" parent="1">
          <mxGeometry x="725" y="580" width="140" height="60" as="geometry" />
        </mxCell>
        <mxCell id="eqJoa6EhZJMx3TBZtdDF-41" style="edgeStyle=orthogonalEdgeStyle;rounded=0;orthogonalLoop=1;jettySize=auto;html=1;exitX=0.5;exitY=1;exitDx=0;exitDy=0;" edge="1" parent="1" source="eqJoa6EhZJMx3TBZtdDF-26" target="eqJoa6EhZJMx3TBZtdDF-36">
          <mxGeometry relative="1" as="geometry" />
        </mxCell>
        <mxCell id="eqJoa6EhZJMx3TBZtdDF-26" value="tienDien=soDien*30000" style="whiteSpace=wrap;html=1;" vertex="1" parent="1">
          <mxGeometry x="900" y="580" width="140" height="60" as="geometry" />
        </mxCell>
        <mxCell id="eqJoa6EhZJMx3TBZtdDF-43" value="" style="edgeStyle=orthogonalEdgeStyle;rounded=0;orthogonalLoop=1;jettySize=auto;html=1;" edge="1" parent="1" source="eqJoa6EhZJMx3TBZtdDF-36" target="eqJoa6EhZJMx3TBZtdDF-42">
          <mxGeometry relative="1" as="geometry" />
        </mxCell>
        <mxCell id="eqJoa6EhZJMx3TBZtdDF-36" value="tienDien" style="shape=parallelogram;perimeter=parallelogramPerimeter;whiteSpace=wrap;html=1;fixedSize=1;" vertex="1" parent="1">
          <mxGeometry x="550" y="700" width="120" height="60" as="geometry" />
        </mxCell>
        <mxCell id="eqJoa6EhZJMx3TBZtdDF-42" value="end" style="ellipse;whiteSpace=wrap;html=1;" vertex="1" parent="1">
          <mxGeometry x="560" y="800" width="100" height="50" as="geometry" />
        </mxCell>
      </root>
    </mxGraphModel>
  </diagram>
  <diagram id="T0Vvi6r8bohRuMreJJ8h" name="Page-4">
    <mxGraphModel dx="1295" dy="768" grid="1" gridSize="10" guides="1" tooltips="1" connect="1" arrows="1" fold="1" page="1" pageScale="1" pageWidth="850" pageHeight="1100" math="0" shadow="0">
      <root>
        <mxCell id="0" />
        <mxCell id="1" parent="0" />
        <mxCell id="2eEdQ14SSc6_lpAmiCu3-3" value="" style="edgeStyle=orthogonalEdgeStyle;rounded=0;orthogonalLoop=1;jettySize=auto;html=1;" edge="1" parent="1" source="2eEdQ14SSc6_lpAmiCu3-1" target="2eEdQ14SSc6_lpAmiCu3-2">
          <mxGeometry relative="1" as="geometry" />
        </mxCell>
        <mxCell id="2eEdQ14SSc6_lpAmiCu3-1" value="start" style="ellipse;whiteSpace=wrap;html=1;" vertex="1" parent="1">
          <mxGeometry x="85" y="40" width="120" height="80" as="geometry" />
        </mxCell>
        <mxCell id="2eEdQ14SSc6_lpAmiCu3-5" value="" style="edgeStyle=orthogonalEdgeStyle;rounded=0;orthogonalLoop=1;jettySize=auto;html=1;" edge="1" parent="1" source="2eEdQ14SSc6_lpAmiCu3-2" target="2eEdQ14SSc6_lpAmiCu3-4">
          <mxGeometry relative="1" as="geometry" />
        </mxCell>
        <mxCell id="2eEdQ14SSc6_lpAmiCu3-2" value="month,year" style="shape=parallelogram;perimeter=parallelogramPerimeter;whiteSpace=wrap;html=1;fixedSize=1;" vertex="1" parent="1">
          <mxGeometry x="85" y="160" width="120" height="60" as="geometry" />
        </mxCell>
        <mxCell id="2eEdQ14SSc6_lpAmiCu3-7" value="" style="edgeStyle=orthogonalEdgeStyle;rounded=0;orthogonalLoop=1;jettySize=auto;html=1;" edge="1" parent="1" source="2eEdQ14SSc6_lpAmiCu3-4" target="2eEdQ14SSc6_lpAmiCu3-6">
          <mxGeometry relative="1" as="geometry" />
        </mxCell>
        <mxCell id="2eEdQ14SSc6_lpAmiCu3-4" value="month,year" style="whiteSpace=wrap;html=1;" vertex="1" parent="1">
          <mxGeometry x="85" y="250" width="120" height="60" as="geometry" />
        </mxCell>
        <mxCell id="2eEdQ14SSc6_lpAmiCu3-9" value="" style="edgeStyle=orthogonalEdgeStyle;rounded=0;orthogonalLoop=1;jettySize=auto;html=1;" edge="1" parent="1" source="2eEdQ14SSc6_lpAmiCu3-6" target="2eEdQ14SSc6_lpAmiCu3-8">
          <mxGeometry relative="1" as="geometry" />
        </mxCell>
        <mxCell id="2eEdQ14SSc6_lpAmiCu3-11" value="" style="edgeStyle=orthogonalEdgeStyle;rounded=0;orthogonalLoop=1;jettySize=auto;html=1;" edge="1" parent="1" source="2eEdQ14SSc6_lpAmiCu3-6" target="2eEdQ14SSc6_lpAmiCu3-10">
          <mxGeometry relative="1" as="geometry" />
        </mxCell>
        <mxCell id="2eEdQ14SSc6_lpAmiCu3-6" value="month=1||3||5||7||8||10||12" style="rhombus;whiteSpace=wrap;html=1;" vertex="1" parent="1">
          <mxGeometry x="60" y="340" width="170" height="60" as="geometry" />
        </mxCell>
        <mxCell id="2eEdQ14SSc6_lpAmiCu3-25" style="edgeStyle=orthogonalEdgeStyle;rounded=0;orthogonalLoop=1;jettySize=auto;html=1;exitX=0.5;exitY=1;exitDx=0;exitDy=0;" edge="1" parent="1" source="2eEdQ14SSc6_lpAmiCu3-8" target="2eEdQ14SSc6_lpAmiCu3-24">
          <mxGeometry relative="1" as="geometry" />
        </mxCell>
        <mxCell id="2eEdQ14SSc6_lpAmiCu3-8" value="tháng có 31 ngày" style="whiteSpace=wrap;html=1;" vertex="1" parent="1">
          <mxGeometry x="85" y="440" width="120" height="60" as="geometry" />
        </mxCell>
        <mxCell id="2eEdQ14SSc6_lpAmiCu3-13" value="" style="edgeStyle=orthogonalEdgeStyle;rounded=0;orthogonalLoop=1;jettySize=auto;html=1;" edge="1" parent="1" source="2eEdQ14SSc6_lpAmiCu3-10" target="2eEdQ14SSc6_lpAmiCu3-12">
          <mxGeometry relative="1" as="geometry" />
        </mxCell>
        <mxCell id="2eEdQ14SSc6_lpAmiCu3-15" value="" style="edgeStyle=orthogonalEdgeStyle;rounded=0;orthogonalLoop=1;jettySize=auto;html=1;" edge="1" parent="1" source="2eEdQ14SSc6_lpAmiCu3-10" target="2eEdQ14SSc6_lpAmiCu3-14">
          <mxGeometry relative="1" as="geometry" />
        </mxCell>
        <mxCell id="2eEdQ14SSc6_lpAmiCu3-10" value="month=4||6||9||11" style="rhombus;whiteSpace=wrap;html=1;" vertex="1" parent="1">
          <mxGeometry x="285" y="340" width="170" height="60" as="geometry" />
        </mxCell>
        <mxCell id="2eEdQ14SSc6_lpAmiCu3-26" style="edgeStyle=orthogonalEdgeStyle;rounded=0;orthogonalLoop=1;jettySize=auto;html=1;exitX=0.5;exitY=1;exitDx=0;exitDy=0;" edge="1" parent="1" source="2eEdQ14SSc6_lpAmiCu3-12" target="2eEdQ14SSc6_lpAmiCu3-24">
          <mxGeometry relative="1" as="geometry" />
        </mxCell>
        <mxCell id="2eEdQ14SSc6_lpAmiCu3-12" value="tháng có 30 ngày" style="whiteSpace=wrap;html=1;" vertex="1" parent="1">
          <mxGeometry x="310" y="440" width="120" height="60" as="geometry" />
        </mxCell>
        <mxCell id="2eEdQ14SSc6_lpAmiCu3-17" value="" style="edgeStyle=orthogonalEdgeStyle;rounded=0;orthogonalLoop=1;jettySize=auto;html=1;" edge="1" parent="1" source="2eEdQ14SSc6_lpAmiCu3-14" target="2eEdQ14SSc6_lpAmiCu3-16">
          <mxGeometry relative="1" as="geometry" />
        </mxCell>
        <mxCell id="2eEdQ14SSc6_lpAmiCu3-34" value="" style="edgeStyle=orthogonalEdgeStyle;rounded=0;orthogonalLoop=1;jettySize=auto;html=1;" edge="1" parent="1" source="2eEdQ14SSc6_lpAmiCu3-14" target="2eEdQ14SSc6_lpAmiCu3-33">
          <mxGeometry relative="1" as="geometry">
            <Array as="points">
              <mxPoint x="820" y="370" />
              <mxPoint x="820" y="710" />
            </Array>
          </mxGeometry>
        </mxCell>
        <mxCell id="2eEdQ14SSc6_lpAmiCu3-14" value="month=2" style="rhombus;whiteSpace=wrap;html=1;" vertex="1" parent="1">
          <mxGeometry x="495" y="340" width="170" height="60" as="geometry" />
        </mxCell>
        <mxCell id="2eEdQ14SSc6_lpAmiCu3-19" value="" style="edgeStyle=orthogonalEdgeStyle;rounded=0;orthogonalLoop=1;jettySize=auto;html=1;" edge="1" parent="1" source="2eEdQ14SSc6_lpAmiCu3-16" target="2eEdQ14SSc6_lpAmiCu3-18">
          <mxGeometry relative="1" as="geometry" />
        </mxCell>
        <mxCell id="2eEdQ14SSc6_lpAmiCu3-21" value="" style="edgeStyle=orthogonalEdgeStyle;rounded=0;orthogonalLoop=1;jettySize=auto;html=1;" edge="1" parent="1" source="2eEdQ14SSc6_lpAmiCu3-16" target="2eEdQ14SSc6_lpAmiCu3-20">
          <mxGeometry relative="1" as="geometry" />
        </mxCell>
        <mxCell id="2eEdQ14SSc6_lpAmiCu3-16" value="(year%4==0)&amp;amp;&amp;amp;(year%100!=0)" style="rhombus;whiteSpace=wrap;html=1;" vertex="1" parent="1">
          <mxGeometry x="498.75" y="430" width="162.5" height="50" as="geometry" />
        </mxCell>
        <mxCell id="2eEdQ14SSc6_lpAmiCu3-27" style="edgeStyle=orthogonalEdgeStyle;rounded=0;orthogonalLoop=1;jettySize=auto;html=1;exitX=0.5;exitY=1;exitDx=0;exitDy=0;" edge="1" parent="1" source="2eEdQ14SSc6_lpAmiCu3-18" target="2eEdQ14SSc6_lpAmiCu3-24">
          <mxGeometry relative="1" as="geometry" />
        </mxCell>
        <mxCell id="2eEdQ14SSc6_lpAmiCu3-18" value="tháng có 29 ngày" style="whiteSpace=wrap;html=1;" vertex="1" parent="1">
          <mxGeometry x="520" y="555" width="120" height="60" as="geometry" />
        </mxCell>
        <mxCell id="2eEdQ14SSc6_lpAmiCu3-28" style="edgeStyle=orthogonalEdgeStyle;rounded=0;orthogonalLoop=1;jettySize=auto;html=1;exitX=0.5;exitY=1;exitDx=0;exitDy=0;" edge="1" parent="1" source="2eEdQ14SSc6_lpAmiCu3-20" target="2eEdQ14SSc6_lpAmiCu3-24">
          <mxGeometry relative="1" as="geometry" />
        </mxCell>
        <mxCell id="2eEdQ14SSc6_lpAmiCu3-20" value="tháng có 28 ngày" style="whiteSpace=wrap;html=1;" vertex="1" parent="1">
          <mxGeometry x="665" y="555" width="120" height="60" as="geometry" />
        </mxCell>
        <mxCell id="2eEdQ14SSc6_lpAmiCu3-30" value="" style="edgeStyle=orthogonalEdgeStyle;rounded=0;orthogonalLoop=1;jettySize=auto;html=1;" edge="1" parent="1" source="2eEdQ14SSc6_lpAmiCu3-24" target="2eEdQ14SSc6_lpAmiCu3-29">
          <mxGeometry relative="1" as="geometry" />
        </mxCell>
        <mxCell id="2eEdQ14SSc6_lpAmiCu3-24" value="số ngày của tháng ấy" style="shape=parallelogram;perimeter=parallelogramPerimeter;whiteSpace=wrap;html=1;fixedSize=1;" vertex="1" parent="1">
          <mxGeometry x="320" y="690" width="145" height="60" as="geometry" />
        </mxCell>
        <mxCell id="2eEdQ14SSc6_lpAmiCu3-29" value="end" style="ellipse;whiteSpace=wrap;html=1;" vertex="1" parent="1">
          <mxGeometry x="352.5" y="820" width="80" height="40" as="geometry" />
        </mxCell>
        <mxCell id="2eEdQ14SSc6_lpAmiCu3-35" style="edgeStyle=orthogonalEdgeStyle;rounded=0;orthogonalLoop=1;jettySize=auto;html=1;exitX=0;exitY=0.5;exitDx=0;exitDy=0;" edge="1" parent="1" source="2eEdQ14SSc6_lpAmiCu3-33" target="2eEdQ14SSc6_lpAmiCu3-29">
          <mxGeometry relative="1" as="geometry">
            <Array as="points">
              <mxPoint x="520" y="840" />
            </Array>
          </mxGeometry>
        </mxCell>
        <mxCell id="2eEdQ14SSc6_lpAmiCu3-33" value="tháng ko phù hợp" style="whiteSpace=wrap;html=1;" vertex="1" parent="1">
          <mxGeometry x="500" y="690" width="120" height="60" as="geometry" />
        </mxCell>
      </root>
    </mxGraphModel>
  </diagram>
  <diagram id="iR2SE0HfPLGO0OK17ER0" name="Page-5">
    <mxGraphModel dx="1036" dy="614" grid="1" gridSize="10" guides="1" tooltips="1" connect="1" arrows="1" fold="1" page="1" pageScale="1" pageWidth="850" pageHeight="1100" math="0" shadow="0">
      <root>
        <mxCell id="0" />
        <mxCell id="1" parent="0" />
        <mxCell id="5guBZtjAQ1dV5bOHIelj-1" value="" style="edgeStyle=orthogonalEdgeStyle;rounded=0;orthogonalLoop=1;jettySize=auto;html=1;" edge="1" parent="1" source="5guBZtjAQ1dV5bOHIelj-2" target="5guBZtjAQ1dV5bOHIelj-4">
          <mxGeometry relative="1" as="geometry" />
        </mxCell>
        <mxCell id="5guBZtjAQ1dV5bOHIelj-2" value="start" style="ellipse;whiteSpace=wrap;html=1;" vertex="1" parent="1">
          <mxGeometry x="85" y="40" width="120" height="80" as="geometry" />
        </mxCell>
        <mxCell id="5guBZtjAQ1dV5bOHIelj-3" value="" style="edgeStyle=orthogonalEdgeStyle;rounded=0;orthogonalLoop=1;jettySize=auto;html=1;" edge="1" parent="1" source="5guBZtjAQ1dV5bOHIelj-4" target="5guBZtjAQ1dV5bOHIelj-6">
          <mxGeometry relative="1" as="geometry" />
        </mxCell>
        <mxCell id="5guBZtjAQ1dV5bOHIelj-4" value="day,month,year" style="shape=parallelogram;perimeter=parallelogramPerimeter;whiteSpace=wrap;html=1;fixedSize=1;" vertex="1" parent="1">
          <mxGeometry x="85" y="160" width="120" height="60" as="geometry" />
        </mxCell>
        <mxCell id="5guBZtjAQ1dV5bOHIelj-5" value="" style="edgeStyle=orthogonalEdgeStyle;rounded=0;orthogonalLoop=1;jettySize=auto;html=1;" edge="1" parent="1" source="5guBZtjAQ1dV5bOHIelj-6" target="5guBZtjAQ1dV5bOHIelj-8">
          <mxGeometry relative="1" as="geometry" />
        </mxCell>
        <mxCell id="5guBZtjAQ1dV5bOHIelj-6" value="day,month,year" style="whiteSpace=wrap;html=1;" vertex="1" parent="1">
          <mxGeometry x="85" y="250" width="120" height="60" as="geometry" />
        </mxCell>
        <mxCell id="5guBZtjAQ1dV5bOHIelj-7" value="" style="edgeStyle=orthogonalEdgeStyle;rounded=0;orthogonalLoop=1;jettySize=auto;html=1;" edge="1" parent="1" source="5guBZtjAQ1dV5bOHIelj-8" target="5guBZtjAQ1dV5bOHIelj-10">
          <mxGeometry relative="1" as="geometry" />
        </mxCell>
        <mxCell id="zJvaPmI_bkrvQK3daz5S-21" value="false" style="edgeLabel;html=1;align=center;verticalAlign=middle;resizable=0;points=[];" vertex="1" connectable="0" parent="5guBZtjAQ1dV5bOHIelj-7">
          <mxGeometry x="-0.1418" y="-1" relative="1" as="geometry">
            <mxPoint as="offset" />
          </mxGeometry>
        </mxCell>
        <mxCell id="5guBZtjAQ1dV5bOHIelj-13" value="" style="edgeStyle=orthogonalEdgeStyle;rounded=0;orthogonalLoop=1;jettySize=auto;html=1;" edge="1" parent="1" source="5guBZtjAQ1dV5bOHIelj-8" target="5guBZtjAQ1dV5bOHIelj-12">
          <mxGeometry relative="1" as="geometry" />
        </mxCell>
        <mxCell id="zJvaPmI_bkrvQK3daz5S-13" value="true" style="edgeLabel;html=1;align=center;verticalAlign=middle;resizable=0;points=[];" vertex="1" connectable="0" parent="5guBZtjAQ1dV5bOHIelj-13">
          <mxGeometry x="-0.06" y="-2" relative="1" as="geometry">
            <mxPoint as="offset" />
          </mxGeometry>
        </mxCell>
        <mxCell id="5guBZtjAQ1dV5bOHIelj-8" value="month=1||3||5||7||8||10||12" style="rhombus;whiteSpace=wrap;html=1;" vertex="1" parent="1">
          <mxGeometry x="60" y="340" width="170" height="60" as="geometry" />
        </mxCell>
        <mxCell id="5guBZtjAQ1dV5bOHIelj-9" value="" style="edgeStyle=orthogonalEdgeStyle;rounded=0;orthogonalLoop=1;jettySize=auto;html=1;" edge="1" parent="1" source="5guBZtjAQ1dV5bOHIelj-10" target="5guBZtjAQ1dV5bOHIelj-11">
          <mxGeometry relative="1" as="geometry" />
        </mxCell>
        <mxCell id="zJvaPmI_bkrvQK3daz5S-22" value="false" style="edgeLabel;html=1;align=center;verticalAlign=middle;resizable=0;points=[];" vertex="1" connectable="0" parent="5guBZtjAQ1dV5bOHIelj-9">
          <mxGeometry x="-0.27" y="-1" relative="1" as="geometry">
            <mxPoint as="offset" />
          </mxGeometry>
        </mxCell>
        <mxCell id="5guBZtjAQ1dV5bOHIelj-18" value="" style="edgeStyle=orthogonalEdgeStyle;rounded=0;orthogonalLoop=1;jettySize=auto;html=1;" edge="1" parent="1" source="5guBZtjAQ1dV5bOHIelj-10" target="5guBZtjAQ1dV5bOHIelj-19">
          <mxGeometry relative="1" as="geometry">
            <mxPoint x="370" y="480" as="targetPoint" />
          </mxGeometry>
        </mxCell>
        <mxCell id="zJvaPmI_bkrvQK3daz5S-16" value="true" style="edgeLabel;html=1;align=center;verticalAlign=middle;resizable=0;points=[];" vertex="1" connectable="0" parent="5guBZtjAQ1dV5bOHIelj-18">
          <mxGeometry x="-0.31" y="-1" relative="1" as="geometry">
            <mxPoint as="offset" />
          </mxGeometry>
        </mxCell>
        <mxCell id="5guBZtjAQ1dV5bOHIelj-10" value="month=4||6||9||11" style="rhombus;whiteSpace=wrap;html=1;" vertex="1" parent="1">
          <mxGeometry x="285" y="340" width="170" height="60" as="geometry" />
        </mxCell>
        <mxCell id="zJvaPmI_bkrvQK3daz5S-2" style="edgeStyle=orthogonalEdgeStyle;rounded=0;orthogonalLoop=1;jettySize=auto;html=1;exitX=0.5;exitY=1;exitDx=0;exitDy=0;" edge="1" parent="1" source="5guBZtjAQ1dV5bOHIelj-11" target="zJvaPmI_bkrvQK3daz5S-1">
          <mxGeometry relative="1" as="geometry" />
        </mxCell>
        <mxCell id="zJvaPmI_bkrvQK3daz5S-17" value="true" style="edgeLabel;html=1;align=center;verticalAlign=middle;resizable=0;points=[];" vertex="1" connectable="0" parent="zJvaPmI_bkrvQK3daz5S-2">
          <mxGeometry x="0.1006" y="-1" relative="1" as="geometry">
            <mxPoint as="offset" />
          </mxGeometry>
        </mxCell>
        <mxCell id="zJvaPmI_bkrvQK3daz5S-28" value="" style="edgeStyle=orthogonalEdgeStyle;rounded=0;orthogonalLoop=1;jettySize=auto;html=1;" edge="1" parent="1" source="5guBZtjAQ1dV5bOHIelj-11" target="zJvaPmI_bkrvQK3daz5S-27">
          <mxGeometry relative="1" as="geometry">
            <Array as="points">
              <mxPoint x="910" y="370" />
              <mxPoint x="910" y="640" />
            </Array>
          </mxGeometry>
        </mxCell>
        <mxCell id="zJvaPmI_bkrvQK3daz5S-29" value="false" style="edgeLabel;html=1;align=center;verticalAlign=middle;resizable=0;points=[];" vertex="1" connectable="0" parent="zJvaPmI_bkrvQK3daz5S-28">
          <mxGeometry x="-0.6619" y="1" relative="1" as="geometry">
            <mxPoint as="offset" />
          </mxGeometry>
        </mxCell>
        <mxCell id="5guBZtjAQ1dV5bOHIelj-11" value="month=2" style="rhombus;whiteSpace=wrap;html=1;" vertex="1" parent="1">
          <mxGeometry x="495" y="340" width="170" height="60" as="geometry" />
        </mxCell>
        <mxCell id="5guBZtjAQ1dV5bOHIelj-15" value="" style="edgeStyle=orthogonalEdgeStyle;rounded=0;orthogonalLoop=1;jettySize=auto;html=1;" edge="1" parent="1" source="5guBZtjAQ1dV5bOHIelj-12" target="5guBZtjAQ1dV5bOHIelj-16">
          <mxGeometry relative="1" as="geometry">
            <mxPoint x="145" y="565" as="targetPoint" />
            <Array as="points">
              <mxPoint x="145" y="530" />
              <mxPoint x="350" y="530" />
            </Array>
          </mxGeometry>
        </mxCell>
        <mxCell id="zJvaPmI_bkrvQK3daz5S-14" value="true" style="edgeLabel;html=1;align=center;verticalAlign=middle;resizable=0;points=[];" vertex="1" connectable="0" parent="5guBZtjAQ1dV5bOHIelj-15">
          <mxGeometry x="-0.8636" y="-1" relative="1" as="geometry">
            <mxPoint as="offset" />
          </mxGeometry>
        </mxCell>
        <mxCell id="5guBZtjAQ1dV5bOHIelj-21" value="" style="edgeStyle=orthogonalEdgeStyle;rounded=0;orthogonalLoop=1;jettySize=auto;html=1;" edge="1" parent="1" source="5guBZtjAQ1dV5bOHIelj-12" target="5guBZtjAQ1dV5bOHIelj-20">
          <mxGeometry relative="1" as="geometry">
            <Array as="points">
              <mxPoint x="70" y="465" />
              <mxPoint x="70" y="610" />
            </Array>
          </mxGeometry>
        </mxCell>
        <mxCell id="5guBZtjAQ1dV5bOHIelj-12" value="0&amp;lt;day&amp;lt;32&lt;br&gt;&amp;amp;&lt;br&gt;year&amp;gt;0" style="rhombus;whiteSpace=wrap;html=1;" vertex="1" parent="1">
          <mxGeometry x="72.5" y="440" width="145" height="50" as="geometry" />
        </mxCell>
        <mxCell id="zJvaPmI_bkrvQK3daz5S-32" style="edgeStyle=orthogonalEdgeStyle;rounded=0;orthogonalLoop=1;jettySize=auto;html=1;exitX=0.5;exitY=1;exitDx=0;exitDy=0;" edge="1" parent="1" source="5guBZtjAQ1dV5bOHIelj-16" target="zJvaPmI_bkrvQK3daz5S-30">
          <mxGeometry relative="1" as="geometry" />
        </mxCell>
        <mxCell id="5guBZtjAQ1dV5bOHIelj-16" value="ngày&amp;nbsp; tháng năm" style="shape=parallelogram;perimeter=parallelogramPerimeter;whiteSpace=wrap;html=1;fixedSize=1;" vertex="1" parent="1">
          <mxGeometry x="310" y="590" width="120" height="60" as="geometry" />
        </mxCell>
        <mxCell id="5guBZtjAQ1dV5bOHIelj-22" style="edgeStyle=orthogonalEdgeStyle;rounded=0;orthogonalLoop=1;jettySize=auto;html=1;exitX=0;exitY=0.5;exitDx=0;exitDy=0;" edge="1" parent="1" source="5guBZtjAQ1dV5bOHIelj-19" target="5guBZtjAQ1dV5bOHIelj-20">
          <mxGeometry relative="1" as="geometry" />
        </mxCell>
        <mxCell id="zJvaPmI_bkrvQK3daz5S-10" style="edgeStyle=orthogonalEdgeStyle;rounded=0;orthogonalLoop=1;jettySize=auto;html=1;exitX=0.5;exitY=1;exitDx=0;exitDy=0;" edge="1" parent="1" source="5guBZtjAQ1dV5bOHIelj-19" target="5guBZtjAQ1dV5bOHIelj-16">
          <mxGeometry relative="1" as="geometry" />
        </mxCell>
        <mxCell id="zJvaPmI_bkrvQK3daz5S-15" value="true" style="edgeLabel;html=1;align=center;verticalAlign=middle;resizable=0;points=[];" vertex="1" connectable="0" parent="zJvaPmI_bkrvQK3daz5S-10">
          <mxGeometry x="-0.212" y="2" relative="1" as="geometry">
            <mxPoint as="offset" />
          </mxGeometry>
        </mxCell>
        <mxCell id="5guBZtjAQ1dV5bOHIelj-19" value="0&amp;lt;day&amp;lt;31&lt;br&gt;&amp;amp;&lt;br&gt;year&amp;gt;0" style="rhombus;whiteSpace=wrap;html=1;" vertex="1" parent="1">
          <mxGeometry x="297.5" y="440" width="145" height="50" as="geometry" />
        </mxCell>
        <mxCell id="zJvaPmI_bkrvQK3daz5S-33" style="edgeStyle=orthogonalEdgeStyle;rounded=0;orthogonalLoop=1;jettySize=auto;html=1;exitX=0.5;exitY=1;exitDx=0;exitDy=0;" edge="1" parent="1" source="5guBZtjAQ1dV5bOHIelj-20" target="zJvaPmI_bkrvQK3daz5S-30">
          <mxGeometry relative="1" as="geometry" />
        </mxCell>
        <mxCell id="5guBZtjAQ1dV5bOHIelj-20" value="ngày or năm ko&lt;br&gt;&amp;nbsp;hợp lệ" style="shape=parallelogram;perimeter=parallelogramPerimeter;whiteSpace=wrap;html=1;fixedSize=1;" vertex="1" parent="1">
          <mxGeometry x="170" y="590" width="120" height="60" as="geometry" />
        </mxCell>
        <mxCell id="zJvaPmI_bkrvQK3daz5S-4" value="" style="edgeStyle=orthogonalEdgeStyle;rounded=0;orthogonalLoop=1;jettySize=auto;html=1;" edge="1" parent="1" source="zJvaPmI_bkrvQK3daz5S-1" target="zJvaPmI_bkrvQK3daz5S-5">
          <mxGeometry relative="1" as="geometry">
            <mxPoint x="580" y="570" as="targetPoint" />
          </mxGeometry>
        </mxCell>
        <mxCell id="zJvaPmI_bkrvQK3daz5S-20" value="true" style="edgeLabel;html=1;align=center;verticalAlign=middle;resizable=0;points=[];" vertex="1" connectable="0" parent="zJvaPmI_bkrvQK3daz5S-4">
          <mxGeometry x="-0.5333" y="-1" relative="1" as="geometry">
            <mxPoint y="2" as="offset" />
          </mxGeometry>
        </mxCell>
        <mxCell id="zJvaPmI_bkrvQK3daz5S-7" style="edgeStyle=orthogonalEdgeStyle;rounded=0;orthogonalLoop=1;jettySize=auto;html=1;exitX=1;exitY=0.5;exitDx=0;exitDy=0;" edge="1" parent="1" source="zJvaPmI_bkrvQK3daz5S-1" target="zJvaPmI_bkrvQK3daz5S-6">
          <mxGeometry relative="1" as="geometry" />
        </mxCell>
        <mxCell id="zJvaPmI_bkrvQK3daz5S-23" value="false" style="edgeLabel;html=1;align=center;verticalAlign=middle;resizable=0;points=[];" vertex="1" connectable="0" parent="zJvaPmI_bkrvQK3daz5S-7">
          <mxGeometry x="-0.12" relative="1" as="geometry">
            <mxPoint as="offset" />
          </mxGeometry>
        </mxCell>
        <mxCell id="zJvaPmI_bkrvQK3daz5S-1" value="(year%4==0)&amp;amp;&amp;amp;(year%100!=0)" style="rhombus;whiteSpace=wrap;html=1;" vertex="1" parent="1">
          <mxGeometry x="498.75" y="440" width="162.5" height="50" as="geometry" />
        </mxCell>
        <mxCell id="zJvaPmI_bkrvQK3daz5S-8" style="edgeStyle=orthogonalEdgeStyle;rounded=0;orthogonalLoop=1;jettySize=auto;html=1;exitX=0;exitY=0.5;exitDx=0;exitDy=0;" edge="1" parent="1" source="zJvaPmI_bkrvQK3daz5S-5" target="5guBZtjAQ1dV5bOHIelj-20">
          <mxGeometry relative="1" as="geometry">
            <Array as="points">
              <mxPoint x="230" y="545" />
            </Array>
          </mxGeometry>
        </mxCell>
        <mxCell id="zJvaPmI_bkrvQK3daz5S-26" value="false" style="edgeLabel;html=1;align=center;verticalAlign=middle;resizable=0;points=[];" vertex="1" connectable="0" parent="zJvaPmI_bkrvQK3daz5S-8">
          <mxGeometry x="-0.5479" relative="1" as="geometry">
            <mxPoint as="offset" />
          </mxGeometry>
        </mxCell>
        <mxCell id="zJvaPmI_bkrvQK3daz5S-11" style="edgeStyle=orthogonalEdgeStyle;rounded=0;orthogonalLoop=1;jettySize=auto;html=1;exitX=0.5;exitY=1;exitDx=0;exitDy=0;" edge="1" parent="1" source="zJvaPmI_bkrvQK3daz5S-5" target="5guBZtjAQ1dV5bOHIelj-16">
          <mxGeometry relative="1" as="geometry">
            <Array as="points">
              <mxPoint x="580" y="620" />
            </Array>
          </mxGeometry>
        </mxCell>
        <mxCell id="zJvaPmI_bkrvQK3daz5S-18" value="true" style="edgeLabel;html=1;align=center;verticalAlign=middle;resizable=0;points=[];" vertex="1" connectable="0" parent="zJvaPmI_bkrvQK3daz5S-11">
          <mxGeometry x="-0.7048" y="-2" relative="1" as="geometry">
            <mxPoint as="offset" />
          </mxGeometry>
        </mxCell>
        <mxCell id="zJvaPmI_bkrvQK3daz5S-5" value="0&amp;lt;day&amp;lt;30&lt;br&gt;&amp;amp;&lt;br&gt;year&amp;gt;0" style="rhombus;whiteSpace=wrap;html=1;" vertex="1" parent="1">
          <mxGeometry x="507.5" y="520" width="145" height="50" as="geometry" />
        </mxCell>
        <mxCell id="zJvaPmI_bkrvQK3daz5S-9" style="edgeStyle=orthogonalEdgeStyle;rounded=0;orthogonalLoop=1;jettySize=auto;html=1;exitX=0;exitY=1;exitDx=0;exitDy=0;" edge="1" parent="1" source="zJvaPmI_bkrvQK3daz5S-6" target="5guBZtjAQ1dV5bOHIelj-20">
          <mxGeometry relative="1" as="geometry">
            <Array as="points">
              <mxPoint x="716" y="545" />
              <mxPoint x="670" y="545" />
              <mxPoint x="670" y="510" />
              <mxPoint x="230" y="510" />
            </Array>
          </mxGeometry>
        </mxCell>
        <mxCell id="zJvaPmI_bkrvQK3daz5S-24" value="false" style="edgeLabel;html=1;align=center;verticalAlign=middle;resizable=0;points=[];" vertex="1" connectable="0" parent="zJvaPmI_bkrvQK3daz5S-9">
          <mxGeometry x="-0.0175" y="2" relative="1" as="geometry">
            <mxPoint as="offset" />
          </mxGeometry>
        </mxCell>
        <mxCell id="zJvaPmI_bkrvQK3daz5S-12" style="edgeStyle=orthogonalEdgeStyle;rounded=0;orthogonalLoop=1;jettySize=auto;html=1;exitX=0.5;exitY=1;exitDx=0;exitDy=0;" edge="1" parent="1" source="zJvaPmI_bkrvQK3daz5S-6" target="5guBZtjAQ1dV5bOHIelj-16">
          <mxGeometry relative="1" as="geometry">
            <mxPoint x="540" y="670" as="targetPoint" />
            <Array as="points">
              <mxPoint x="753" y="620" />
            </Array>
          </mxGeometry>
        </mxCell>
        <mxCell id="zJvaPmI_bkrvQK3daz5S-19" value="true" style="edgeLabel;html=1;align=center;verticalAlign=middle;resizable=0;points=[];" vertex="1" connectable="0" parent="zJvaPmI_bkrvQK3daz5S-12">
          <mxGeometry x="-0.8484" relative="1" as="geometry">
            <mxPoint as="offset" />
          </mxGeometry>
        </mxCell>
        <mxCell id="zJvaPmI_bkrvQK3daz5S-6" value="0&amp;lt;day&amp;lt;29&lt;br&gt;&amp;amp;&lt;br&gt;year&amp;gt;0" style="rhombus;whiteSpace=wrap;html=1;" vertex="1" parent="1">
          <mxGeometry x="680" y="520" width="145" height="50" as="geometry" />
        </mxCell>
        <mxCell id="zJvaPmI_bkrvQK3daz5S-31" style="edgeStyle=orthogonalEdgeStyle;rounded=0;orthogonalLoop=1;jettySize=auto;html=1;exitX=0;exitY=0.5;exitDx=0;exitDy=0;" edge="1" parent="1" source="zJvaPmI_bkrvQK3daz5S-27" target="zJvaPmI_bkrvQK3daz5S-30">
          <mxGeometry relative="1" as="geometry" />
        </mxCell>
        <mxCell id="zJvaPmI_bkrvQK3daz5S-27" value="tháng ko hợp lệ" style="shape=parallelogram;perimeter=parallelogramPerimeter;whiteSpace=wrap;html=1;fixedSize=1;" vertex="1" parent="1">
          <mxGeometry x="490" y="650" width="120" height="60" as="geometry" />
        </mxCell>
        <mxCell id="zJvaPmI_bkrvQK3daz5S-30" value="end" style="ellipse;whiteSpace=wrap;html=1;" vertex="1" parent="1">
          <mxGeometry x="310" y="720" width="120" height="80" as="geometry" />
        </mxCell>
      </root>
    </mxGraphModel>
  </diagram>
  <diagram id="VsgXlWMz-lh_nyN6Y0Ze" name="Page-6">
    <mxGraphModel dx="1036" dy="614" grid="1" gridSize="10" guides="1" tooltips="1" connect="1" arrows="1" fold="1" page="1" pageScale="1" pageWidth="850" pageHeight="1100" math="0" shadow="0">
      <root>
        <mxCell id="0" />
        <mxCell id="1" parent="0" />
      </root>
    </mxGraphModel>
  </diagram>
</mxfile>
